<?xml version="1.0" encoding="utf-8"?>
<!-- Generator: Adobe Illustrator 27.8.1, SVG Export Plug-In . SVG Version: 6.00 Build 0)  -->
<svg version="1.1" id="Capa_1" xmlns="http://www.w3.org/2000/svg" xmlns:xlink="http://www.w3.org/1999/xlink" x="0px" y="0px"
	 viewBox="0 0 532 532" style="enable-background:new 0 0 532 532;" xml:space="preserve">
<style type="text/css">
	.st0{fill:#FFB6B6;}
	.st1{fill:#2F2E41;}
	.st2{fill:#1E345F;}
	.st3{fill:#3F3D56;}
</style>
<circle class="st0" cx="261.2" cy="260.9" r="86.3"/>
<polygon class="st0" points="327.8,398.1 270.8,510.1 190.8,418.1 236.8,306.1 314.7,320.6 310.8,360.1 "/>
<path class="st1" d="M316,340.4c0,0,72.1-96.1,28.6-154s-89.5-30.8-89.5-30.8l-23.3-4.4c0,0-7.6,17.7-14,6.6c-6.4-11.1-26,23-26,23
	c-33.4,43.6,56.4,67.8,56.4,67.8s-9.7,20.1-3.7,25.5s21.5,24.6,21.5,24.6l14.3,14.5l11.7-13.1c0,0,11.1-6.4,15.7-2.3
	c4.5,4.1-8.8,46.5-8.8,46.5L316,340.4L316,340.4z"/>
<path class="st2" d="M98.9,470.2c0.5-22,3-41.6,9.4-50.7l97.6-46.1c0,0,0.3,1.9,1.3,4.8c3.3,9.5,14.3,29.2,47.5,25
	c37.3-4.7,58.6-21.3,63.8-25.9c0.9-0.8,1.3-1.2,1.3-1.2s94.9,27.1,97.6,67.8c0.7,10.5,1.8,23.1,2.9,36.1c0.1,0.8,0.2,1.7,0.2,2.5
	C375.8,514.7,322.2,532,266,532c-61.6,0-120-20.8-167.2-59C98.8,472,98.9,471.1,98.9,470.2z"/>
<path class="st3" d="M0,266c0,65.8,23.7,127.9,67.1,176.6c2.6,2.9,5.2,5.7,7.9,8.5c1,1,2,2,3,3c3.1,3.1,6.3,6.2,9.6,9.1
	c3.7,3.4,7.5,6.6,11.3,9.7c47.2,38.3,105.6,59,167.2,59c56.2,0,109.8-17.3,154.6-49.5c4.1-3,8.2-6,12.1-9.2c0,0,0,0,0.1-0.1
	c1.4-1.2,2.8-2.3,4.2-3.5c1.8-1.5,3.6-3,5.3-4.6c2.9-2.6,5.8-5.2,8.5-7.9c1.1-1,2.1-2,3.1-3.1c4.4-4.4,8.6-8.9,12.6-13.5
	C508.9,392.2,532,330.9,532,266c0-71-27.7-137.8-77.9-188.1S337.1,0,266,0C194.9,0,128.1,27.7,77.9,77.9S0,195,0,266z M2,266
	C2,120.4,120.4,2,266,2s264,118.4,264,264c0,65.7-24.1,125.8-63.9,172c-4.9,5.7-10.1,11.2-15.5,16.5c-2.9,2.8-5.8,5.5-8.8,8.2
	c-1.8,1.6-3.7,3.3-5.6,4.8c-5.1,4.4-10.4,8.5-15.9,12.5c-0.2,0.2-0.5,0.4-0.8,0.5c-7.7,5.5-15.7,10.6-23.9,15.3
	c-1.6,0.9-3.1,1.8-4.7,2.6c-10.8,5.9-22.1,11-33.8,15.3C328.8,524.3,298,530,266,530c-33.2,0-65-6.2-94.3-17.4
	c-7.5-2.9-14.9-6.1-22.1-9.7c-18.2-9-35.2-20-50.7-32.7c-2-1.6-3.9-3.2-5.8-4.9c-1.7-1.5-3.4-2.9-5-4.5c-4.4-4-8.6-8.1-12.6-12.3
	c-2.6-2.7-5.2-5.5-7.7-8.4C26.8,393.6,2,332.7,2,266z"/>
</svg>
