<?xml version="1.0" standalone="no"?>
<!DOCTYPE svg PUBLIC "-//W3C//DTD SVG 20010904//EN"
 "http://www.w3.org/TR/2001/REC-SVG-20010904/DTD/svg10.dtd">
<svg version="1.0" xmlns="http://www.w3.org/2000/svg"
 width="864.000000pt" height="864.000000pt" viewBox="0 0 864.000000 864.000000"
 preserveAspectRatio="xMidYMid meet">

<g transform="translate(0.000000,864.000000) scale(0.100000,-0.100000)"
fill="#000000" stroke="none">
<path d="M4210 8114 c-87 -17 -202 -50 -261 -75 -159 -68 -332 -191 -490 -348
-120 -121 -180 -207 -233 -336 -63 -152 -97 -214 -142 -254 -88 -82 -173 -106
-343 -98 -173 8 -266 38 -581 187 -91 43 -199 88 -240 101 -199 60 -487 2
-770 -156 -401 -224 -533 -472 -399 -752 51 -108 164 -215 365 -346 195 -128
299 -175 464 -212 148 -33 205 -57 324 -135 203 -134 265 -139 575 -40 177 57
247 53 319 -20 42 -42 77 -111 102 -202 34 -127 42 -207 45 -458 5 -382 32
-476 219 -747 117 -169 134 -284 80 -538 -26 -125 -29 -159 -29 -320 l0 -180
32 -66 c43 -87 100 -149 192 -211 42 -28 98 -75 124 -105 121 -133 284 -222
484 -262 309 -63 609 -42 858 58 114 46 440 257 499 322 51 57 78 134 84 244
3 64 -2 112 -27 233 -33 160 -39 276 -20 347 6 22 55 144 109 270 122 288 144
350 171 478 29 139 28 300 -1 477 -31 185 -32 363 -1 480 29 111 108 274 160
327 72 74 94 72 367 -41 151 -63 261 -89 344 -84 120 9 186 63 274 226 99 185
173 238 414 297 212 52 296 103 353 215 34 66 38 163 9 221 -48 94 -149 228
-245 325 -207 208 -450 324 -679 324 -151 0 -255 -33 -668 -209 -290 -124
-312 -130 -358 -107 -51 25 -76 63 -140 209 -61 140 -152 306 -203 370 -17 21
-76 72 -130 114 -54 41 -164 131 -245 200 -175 148 -263 205 -380 246 -77 26
-102 30 -222 33 -74 1 -146 0 -160 -2z m323 -233 c112 -48 336 -199 427 -290
96 -95 129 -161 170 -339 38 -169 63 -220 158 -327 157 -177 191 -240 199
-370 11 -161 -55 -329 -218 -560 -224 -318 -269 -416 -288 -632 -13 -152 2
-397 39 -658 38 -259 89 -466 184 -737 99 -283 133 -447 123 -602 -8 -128 -39
-218 -97 -278 -41 -42 -51 -48 -89 -48 -50 0 -85 20 -101 60 -13 32 -12 35 56
140 92 142 123 310 85 460 -57 228 -170 345 -319 327 -26 -3 -100 -21 -163
-41 -220 -66 -324 -69 -574 -15 -159 35 -240 35 -316 2 -93 -41 -159 -141
-179 -271 -15 -93 3 -194 71 -416 54 -175 56 -200 18 -235 -32 -29 -75 -34
-125 -12 -54 24 -109 105 -145 212 -21 64 -24 92 -24 214 1 126 3 147 27 213
34 91 68 150 164 289 200 284 249 425 261 749 19 534 -109 1022 -357 1359
-203 277 -247 367 -237 485 7 84 31 143 123 306 75 134 100 200 169 448 43
156 81 236 147 310 67 76 153 135 290 201 154 74 238 96 353 92 75 -3 103 -9
168 -36z m-2658 -754 c87 -26 603 -224 725 -279 145 -64 280 -139 314 -174 45
-46 66 -110 66 -199 0 -85 -19 -155 -69 -250 l-36 -70 -5 155 c-8 226 -19 240
-240 315 -224 77 -471 120 -642 113 l-107 -4 32 23 c28 21 90 44 152 56 46 9
-190 19 -305 14 -126 -7 -345 -38 -394 -57 -15 -5 -34 -10 -43 -10 -14 0 -13
3 3 21 23 25 65 48 119 65 l40 12 -39 7 c-88 17 -349 -30 -475 -86 -24 -10
-46 -17 -48 -15 -10 9 101 127 168 178 141 108 270 172 404 202 101 23 275 15
380 -17z m4940 -122 c166 -35 313 -116 443 -245 40 -40 71 -74 70 -76 -2 -1
-64 22 -138 51 -144 58 -254 82 -317 70 l-38 -7 43 -21 c23 -12 42 -24 42 -28
0 -34 -272 -10 -415 36 -13 4 -8 -4 15 -25 31 -27 75 -51 160 -87 22 -9 17
-11 -44 -18 -78 -9 -151 -3 -324 26 -68 11 -127 19 -133 17 -5 -2 13 -18 41
-36 28 -18 48 -37 45 -41 -2 -5 -37 -19 -77 -32 -61 -20 -93 -24 -190 -24
l-116 1 20 -39 c11 -22 26 -69 34 -106 14 -66 19 -226 8 -254 -7 -20 -137 229
-159 307 -45 156 22 273 217 380 293 160 547 207 813 151z m-3538 -1070 c156
-78 271 -253 323 -488 20 -93 40 -314 40 -450 l0 -138 -70 138 c-90 179 -148
254 -285 368 -201 168 -248 240 -249 385 0 57 5 84 21 115 33 62 85 102 134
104 9 1 48 -15 86 -34z m2344 -2 c47 -40 69 -95 69 -178 0 -136 -72 -230 -266
-345 -215 -127 -282 -228 -300 -455 -11 -129 -21 -118 -29 30 -10 189 0 464
20 544 37 149 128 281 246 358 124 80 203 94 260 46z m-1660 -2029 c234 -83
655 -82 872 1 50 20 52 19 28 -14 -42 -58 -166 -135 -274 -169 -76 -24 -220
-21 -327 7 -99 25 -271 107 -317 151 -48 45 -46 47 18 24z m1084 -239 c0 -81
-4 -109 -21 -146 -75 -162 -240 -215 -345 -110 -43 43 -56 89 -40 149 20 74
51 94 266 174 l50 18 -45 -40 c-25 -22 -75 -56 -112 -75 -76 -40 -108 -75
-108 -116 0 -41 46 -88 93 -96 33 -5 41 -2 71 30 41 43 140 234 157 301 10 42
13 46 23 30 6 -11 11 -64 11 -119z m-1074 35 c190 -74 214 -95 214 -188 0 -47
-5 -65 -29 -100 -33 -49 -89 -82 -139 -82 -69 0 -163 84 -214 190 -31 65 -43
171 -22 196 11 13 16 2 39 -84 48 -177 83 -225 168 -225 58 0 126 46 130 88 5
50 -45 105 -147 161 -49 27 -94 57 -100 67 -6 9 -9 17 -7 17 2 0 50 -18 107
-40z m1239 -794 c0 -12 -224 -110 -320 -140 -214 -66 -295 -79 -495 -80 -262
-1 -339 16 -605 131 l-125 54 70 -6 c369 -29 654 -29 1035 1 167 13 430 39
438 43 1 0 2 -1 2 -3z"/>
<path d="M3125 5817 c-57 -57 -58 -142 -4 -216 37 -52 91 -79 206 -102 51 -10
107 -26 123 -34 16 -8 32 -15 36 -15 4 0 4 36 1 79 -9 142 -70 238 -182 292
-84 41 -137 39 -180 -4z"/>
<path d="M5470 5870 c-89 -16 -168 -77 -212 -164 -26 -51 -32 -75 -36 -149
l-5 -89 33 17 c18 9 76 26 128 36 162 33 232 90 240 198 8 108 -51 168 -148
151z"/>
<path d="M2691 5550 c-19 -75 -51 -159 -97 -254 -40 -84 -70 -125 -224 -310
-103 -123 -170 -298 -170 -441 0 -86 42 -437 70 -587 27 -140 68 -278 124
-412 52 -123 82 -179 206 -386 176 -292 246 -464 265 -645 3 -33 7 -148 10
-255 4 -212 16 -281 62 -378 80 -166 310 -300 638 -373 274 -60 492 -171 700
-356 82 -73 138 -133 354 -383 41 -47 92 -97 114 -113 133 -91 283 35 447 376
71 147 107 245 206 562 90 289 143 433 197 540 34 67 61 100 162 200 134 132
165 170 200 248 65 143 54 276 -45 516 -89 219 -116 332 -106 441 4 36 25 164
47 285 22 121 52 281 65 355 32 173 36 356 11 450 -18 67 -73 189 -100 225
-15 19 -16 19 -31 -17 -13 -29 -16 -76 -16 -216 0 -339 -24 -478 -120 -682
-103 -220 -139 -402 -122 -618 21 -275 -43 -486 -184 -611 -27 -23 -95 -70
-150 -103 -56 -33 -132 -83 -170 -111 -110 -81 -292 -270 -401 -417 -104 -140
-231 -272 -277 -290 -39 -15 -112 -12 -145 4 -61 32 -103 96 -164 251 -49 126
-92 212 -132 267 -19 26 -144 141 -277 256 -343 296 -423 383 -502 544 -67
135 -88 226 -88 378 1 106 5 144 31 248 26 103 31 143 31 243 0 176 -19 219
-189 434 -129 163 -154 245 -122 408 11 56 22 129 25 162 13 128 -36 406 -97
550 l-25 60 -11 -45z"/>
</g>
</svg>
